<svg xmlns="http://www.w3.org/2000/svg" width="16" height="16" fill="none" viewBox="0 0 32 32"><path stroke="#000" stroke-linecap="round" stroke-width="1.5" d="M15.654 11.91C10.874 11.91 7 16.53 7 17.703c0 1.175 3.874 5.796 8.654 5.796 4.78 0 8.654-4.621 8.654-5.796 0-1.174-3.875-5.795-8.654-5.795Zm0 0c-2.103 0-3.808 1.678-3.808 3.75 0 2.07 1.705 3.75 3.808 3.75 2.103 0 3.808-1.68 3.808-3.75 0-2.072-1.705-3.75-3.808-3.75Zm9.346 0c-2.636-2.167-5.713-3.41-9-3.41s-6.364 1.243-9 3.41" vector-effect="non-scaling-stroke"/></svg>