<svg xmlns="http://www.w3.org/2000/svg" width="16" height="16" fill="none" viewBox="0 0 32 32"><g stroke="#000" stroke-linecap="round" stroke-width="1.5"><path d="M11.546 9.318h0l.007-.007.14-.134c.545-.428 1.214-.677 1.866-.677h10.45c1.576 0 2.782 1.197 2.739 2.635v9.715c0 1.453-1.219 2.65-2.792 2.65H13.559c-.675 0-1.334-.213-1.857-.67l-.149-.141h0l-.008-.007-6.474-5.946A1.017 1.017 0 0 1 4.758 16c0-.268.104-.534.313-.736l6.475-5.946Z" vector-effect="non-scaling-stroke"/><path d="m14.925 13 5.921 5.657m-5.92 0L20.845 13" vector-effect="non-scaling-stroke"/></g></svg>