<svg xmlns="http://www.w3.org/2000/svg" width="32" height="32" fill="none" viewBox="0 0 32 32"><g stroke="#000" stroke-linecap="round" stroke-linejoin="round" stroke-width="1.5"><path d="M16 7.091c3.539.629 5.958-.354 6.554-3.964-3.412-1.074-5.325.777-6.554 3.964Z" vector-effect="non-scaling-stroke"/><path d="M14.42 9.583c.653.308 1.295.612 2.08.612.784 0 1.427-.304 2.08-.612 1.352-.64 2.75-1.3 5.537.666.176.125.342.258.497.399a6.445 6.445 0 0 0-.084 11.687c-.729 1.21-1.613 2.234-2.575 2.912-1.634 1.152-2.94.619-4.044.168-.509-.208-.975-.398-1.411-.398-.436 0-.902.19-1.411.398-1.105.45-2.41.984-4.044-.168-4.034-2.845-6.72-11.783-2.162-14.998 2.788-1.965 4.185-1.305 5.536-.666Z" vector-effect="non-scaling-stroke"/></g></svg>