<svg xmlns="http://www.w3.org/2000/svg" width="24" height="24" fill="none" viewBox="0 0 32 32"><path stroke="#000" stroke-linecap="round" stroke-linejoin="round" stroke-width="1.5" d="M21.846 20.364H10.154m1-4.38a.5.5 0 1 1-1 0 .5.5 0 0 1 1 0Zm0-3.636a.5.5 0 1 1-1 0 .5.5 0 0 1 1 0Zm3.654 3.637a.5.5 0 1 1-1 0 .5.5 0 0 1 1 0Zm0-3.637a.5.5 0 1 1-1 0 .5.5 0 0 1 1 0Zm3.653 3.637a.5.5 0 1 1-1 0 .5.5 0 0 1 1 0Zm0-3.637a.5.5 0 1 1-1 0 .5.5 0 0 1 1 0Zm3.654 3.637a.5.5 0 1 1-1 0 .5.5 0 0 1 1 0Zm0-3.637a.5.5 0 1 1-1 0 .5.5 0 0 1 1 0ZM6.5 11v10a3 3 0 0 0 3 3h13a3 3 0 0 0 3-3V11a3 3 0 0 0-3-3h-13a3 3 0 0 0-3 3Z" vector-effect="non-scaling-stroke"/></svg>