<svg xmlns="http://www.w3.org/2000/svg" width="32" height="32" fill="none" viewBox="0 0 32 32"><g stroke="#000" stroke-width="1.5"><path d="M7.977 6.5h7.065a.74.74 0 0 1 .536.23l9.114 9.575a2.923 2.923 0 0 1-.057 4.094l-4.267 4.241a2.966 2.966 0 0 1-4.143.033l-9.5-9.15a.732.732 0 0 1-.225-.527V7.968c0-.81.661-1.468 1.477-1.468Z" vector-effect="non-scaling-stroke"/><path d="M13.145 11.27a1.84 1.84 0 0 0-1.846-1.834 1.84 1.84 0 0 0-1.846 1.835 1.84 1.84 0 0 0 1.846 1.834 1.84 1.84 0 0 0 1.846-1.834Z" vector-effect="non-scaling-stroke"/></g></svg>