<svg xmlns="http://www.w3.org/2000/svg" width="16" height="16" fill="none" viewBox="0 0 32 32"><path fill="#000" d="M8.549 7.277a.5.5 0 1 0 .675.738l-.675-.738Zm13.789 18.342a.5.5 0 0 0-.577-.817l.577.817Zm2.816-8.095a.5.5 0 0 0-.8.6l.8-.6Zm1.6 2.966-.4.3a.5.5 0 0 0 .8 0l-.4-.3Zm2.4-2.366a.5.5 0 0 0-.8-.6l.8.6ZM6.846 16.007a.5.5 0 0 0 .8-.6l-.8.6Zm-1.6-2.967.4-.3a.5.5 0 0 0-.8 0l.4.3Zm-2.4 2.367a.5.5 0 1 0 .8.6l-.8-.6Zm6.488 5.57a.5.5 0 1 0 .996.086l-.996-.086Zm12.336.086a.5.5 0 1 0 .996-.086l-.996.086Zm.008-1.77-.456.205.456-.205Zm-11.357 0-.456-.205.456.205ZM16 26.638c-5.647 0-10.255-4.746-10.255-10.638h-1c0 6.41 5.023 11.638 11.255 11.638v-1Zm0-21.277c5.647 0 10.254 4.747 10.254 10.639h1C27.254 9.589 22.232 4.36 16 4.36v1ZM9.224 8.015c1.809-1.653 4.18-2.654 6.776-2.654v-1c-2.86 0-5.468 1.103-7.451 2.916l.675.738ZM21.76 24.802A9.949 9.949 0 0 1 16 26.638v1c2.35 0 4.534-.746 6.338-2.02l-.577-.816ZM26.254 16v3.979h1v-3.98h-1ZM5.745 16v-2.507h-1V16h1Zm18.61 2.124 2 2.667.8-.6-2-2.667-.8.6Zm2.8 2.667 2-2.667-.8-.6-2 2.666.8.6Zm-19.51-5.384-2-2.667-.8.6 2 2.667.8-.6Zm-2.8-2.667-2 2.667.8.6 2-2.667-.8-.6Zm13.741.416A2.587 2.587 0 0 1 16 15.742v1a3.587 3.587 0 0 0 3.586-3.586h-1ZM16 15.742a2.587 2.587 0 0 1-2.587-2.586h-1A3.587 3.587 0 0 0 16 16.742v-1Zm-2.587-2.586A2.587 2.587 0 0 1 16 10.569v-1a3.587 3.587 0 0 0-3.587 3.587h1ZM16 10.569a2.586 2.586 0 0 1 2.586 2.587h1A3.586 3.586 0 0 0 16 9.569v1Zm5.222 8.929c.21.465.401 1.025.448 1.565l.996-.086c-.06-.698-.3-1.374-.532-1.889l-.912.41ZM10.33 21.063c.046-.54.238-1.1.447-1.565l-.912-.41c-.231.515-.472 1.191-.531 1.89l.996.085Zm9.685-3.263h-8.03v1h8.03v-1Zm-9.238 1.698c.192-.428.656-.698 1.208-.698v-1c-.86 0-1.734.429-2.12 1.288l.912.41Zm11.357-.41c-.385-.86-1.26-1.288-2.12-1.288v1c.553 0 1.016.27 1.208.698l.912-.41Z" vector-effect="non-scaling-stroke"/></svg>