<svg xmlns="http://www.w3.org/2000/svg" width="24" height="24" fill="none" viewBox="0 0 32 32"><path stroke="#000" stroke-linecap="round" stroke-linejoin="round" stroke-width="1.5" d="m21.115 25.5-4.019-4.02m8.404.366-4.385-4.384-4.019 4.019m0 0-6.211-6.212-3.654 3.654-.731.73m0 0V9.424A2.923 2.923 0 0 1 9.423 6.5h13.154A2.923 2.923 0 0 1 25.5 9.423v13.154a2.923 2.923 0 0 1-2.923 2.923H9.423A2.923 2.923 0 0 1 6.5 22.577v-2.923Zm16.077-8.038a2.192 2.192 0 1 1-4.385 0 2.192 2.192 0 0 1 4.385 0Z" vector-effect="non-scaling-stroke"/></svg>