<svg xmlns="http://www.w3.org/2000/svg" width="32" height="32" fill="none" viewBox="0 0 32 32"><g stroke="#000" stroke-linejoin="round" stroke-width="1.5"><path d="M14.188 5.01v4.781c0 1.178-.929 2.133-2.077 2.133H7.025M21.538 27H10.462C8.55 27 7 25.408 7 23.445V12.302c0-.785.317-1.536.875-2.074L12.42 5.77A2.73 2.73 0 0 1 14.315 5h7.223C23.45 5 25 6.592 25 8.555v14.89C25 25.408 23.45 27 21.538 27Z" vector-effect="non-scaling-stroke"/><path stroke-linecap="round" d="M20.821 15.938v3.052h1.868m-3.388 0v-3.052l-1.48 1.981-1.482-1.981v3.052m-7.05-3.052v3.052m0-1.59h2.283m0-1.462v3.052m2.314 0v-2.983m1.105-.069h-2.21" vector-effect="non-scaling-stroke"/></g></svg>