<svg xmlns="http://www.w3.org/2000/svg" width="24" height="24" fill="none" viewBox="0 0 32 32"><path stroke="#000" stroke-linecap="round" stroke-linejoin="bevel" stroke-miterlimit="16" stroke-width="1.5" d="M21.23 10.748c1.962 1.15 3.27 3.21 3.27 5.563 0 2.352-1.308 4.413-3.27 5.562m-.653-7.117c.392.322.654.898.654 1.555 0 .657-.262 1.233-.654 1.554M7.5 17.731v-3.462a2 2 0 0 1 2-2h.476a2 2 0 0 0 1.37-.543l4.93-4.64c.638-.6 1.686-.148 1.686.728v16.372c0 .876-1.048 1.328-1.686.728l-4.93-4.64a2 2 0 0 0-1.37-.543H9.5a2 2 0 0 1-2-2Z" vector-effect="non-scaling-stroke"/></svg>