<svg xmlns="http://www.w3.org/2000/svg" width="16" height="16" fill="none" viewBox="0 0 32 32"><g stroke="#000" stroke-linejoin="round" stroke-width="1.5"><path d="M14.188 5.01v4.781c0 1.178-.929 2.133-2.077 2.133H7.025M21.538 27H10.462C8.55 27 7 25.408 7 23.445V12.302c0-.785.317-1.536.875-2.074L12.42 5.77A2.73 2.73 0 0 1 14.315 5h7.223C23.45 5 25 6.592 25 8.555v14.89C25 25.408 23.45 27 21.538 27Z" vector-effect="non-scaling-stroke"/><path stroke-linecap="round" d="M15.667 20v-4h1.471c.834 0 1.195.568 1.195 1.08 0 .51-.361 1.079-1.195 1.079h-1.47M13.8 20v-4L11.9 18.596 10 16v4m11.382 0v-4l-2.268 2.853H22" vector-effect="non-scaling-stroke"/></g></svg>