<svg xmlns="http://www.w3.org/2000/svg" width="32" height="32" fill="none" viewBox="0 0 32 32"><g stroke="#000" stroke-linejoin="round" stroke-width="1.5"><path d="M14.188 5.01v4.781c0 1.178-.929 2.133-2.077 2.133H7.025M21.538 27H10.462C8.55 27 7 25.408 7 23.445V12.302c0-.785.317-1.536.875-2.074L12.42 5.77A2.73 2.73 0 0 1 14.315 5h7.223C23.45 5 25 6.592 25 8.555v14.89C25 25.408 23.45 27 21.538 27Z" vector-effect="non-scaling-stroke"/><path stroke-linecap="round" d="M18.433 20.4V16m0 2.45h1.692c.96 0 1.375-.644 1.375-1.224S21.084 16 20.125 16h-1.692M15.931 16v4.4M10.643 16h2.88L10.5 20.323h3.071" vector-effect="non-scaling-stroke"/></g></svg>