<svg xmlns="http://www.w3.org/2000/svg" width="24" height="24" fill="none" viewBox="0 0 32 32"><g stroke="#000" stroke-linecap="round" stroke-width="1.5"><path d="M13.808 22.615a1.5 1.5 0 0 1 1.5-1.5h1.384a1.5 1.5 0 0 1 1.5 1.5V24a1.5 1.5 0 0 1-1.5 1.5h-1.384a1.5 1.5 0 0 1-1.5-1.5v-1.385Z" vector-effect="non-scaling-stroke"/><path d="M13.808 15.308a1.5 1.5 0 0 1 1.5-1.5h1.384a1.5 1.5 0 0 1 1.5 1.5v1.384a1.5 1.5 0 0 1-1.5 1.5h-1.384a1.5 1.5 0 0 1-1.5-1.5v-1.384Z" vector-effect="non-scaling-stroke"/><path d="M6.5 22.615a1.5 1.5 0 0 1 1.5-1.5h1.385a1.5 1.5 0 0 1 1.5 1.5V24a1.5 1.5 0 0 1-1.5 1.5H8A1.5 1.5 0 0 1 6.5 24v-1.385Z" vector-effect="non-scaling-stroke"/><path d="M21.115 22.615a1.5 1.5 0 0 1 1.5-1.5H24a1.5 1.5 0 0 1 1.5 1.5V24a1.5 1.5 0 0 1-1.5 1.5h-1.385a1.5 1.5 0 0 1-1.5-1.5v-1.385Z" vector-effect="non-scaling-stroke"/><path d="M21.115 15.308a1.5 1.5 0 0 1 1.5-1.5H24a1.5 1.5 0 0 1 1.5 1.5v1.384a1.5 1.5 0 0 1-1.5 1.5h-1.385a1.5 1.5 0 0 1-1.5-1.5v-1.384Z" vector-effect="non-scaling-stroke"/><path d="M13.808 8a1.5 1.5 0 0 1 1.5-1.5h1.384a1.5 1.5 0 0 1 1.5 1.5v1.385a1.5 1.5 0 0 1-1.5 1.5h-1.384a1.5 1.5 0 0 1-1.5-1.5V8Z" vector-effect="non-scaling-stroke"/></g></svg>