<svg xmlns="http://www.w3.org/2000/svg" width="16" height="16" fill="none" viewBox="0 0 32 32"><g stroke="#000" stroke-linejoin="round" stroke-width="1.5"><path d="M14.188 5.01v4.781c0 1.178-.929 2.133-2.077 2.133H7.025M21.538 27H10.462C8.55 27 7 25.408 7 23.445V12.302c0-.785.317-1.536.875-2.074L12.42 5.77A2.73 2.73 0 0 1 14.315 5h7.223C23.45 5 25 6.592 25 8.555v14.89C25 25.408 23.45 27 21.538 27Z" vector-effect="non-scaling-stroke"/><path stroke-linecap="round" d="M13.182 16 10 19.86M10 16l3.182 3.86M19.403 16v4H22m-6.826-4v4h2.596" vector-effect="non-scaling-stroke"/></g></svg>