<svg xmlns="http://www.w3.org/2000/svg" width="32" height="32" fill="none" viewBox="0 0 32 32"><g stroke="#000" stroke-width="1.5"><path d="M19.654 17.462a3.654 3.654 0 1 1-7.308 0 3.654 3.654 0 0 1 7.308 0Z" vector-effect="non-scaling-stroke"/><path d="M6.5 22.5v-8.906a2.71 2.71 0 0 1 2.71-2.71 2.71 2.71 0 0 0 2.424-1.497l.614-1.229A3 3 0 0 1 14.93 6.5h2.138a3 3 0 0 1 2.683 1.658l.614 1.229a2.71 2.71 0 0 0 2.424 1.498 2.71 2.71 0 0 1 2.71 2.71V22.5a3 3 0 0 1-3 3h-13a3 3 0 0 1-3-3Z" vector-effect="non-scaling-stroke"/></g></svg>