<svg xmlns="http://www.w3.org/2000/svg" width="24" height="24" fill="none" viewBox="0 0 32 32"><path stroke="#000" stroke-linecap="round" stroke-width="1.5" d="M16 19.167v.703m0-7.74v4.222m2.702 6.333c0 1.555-1.293 2.815-2.888 2.815-1.594 0-2.887-1.26-2.887-2.815h5.775Zm-9.53 0h13.656c.828 0 1.235-.668 1.164-1.436a1.333 1.333 0 0 0-.21-.563l-1.285-2.11a4 4 0 0 1-.571-1.77l-.215-2.771a4.305 4.305 0 0 0-.17-.978c-.308-.964-1.214-3.121-3.375-4.03v-.416c0-1.166-.97-2.111-2.166-2.111s-2.166.945-2.166 2.111v.416c-2.236.94-3.129 3.217-3.404 4.126a4.137 4.137 0 0 0-.143.78l-.306 2.979a4 4 0 0 1-.512 1.586l-1.27 2.206c-.093.161-.17.334-.189.52-.081.778.325 1.461 1.162 1.461Z" vector-effect="non-scaling-stroke"/></svg>