<svg xmlns="http://www.w3.org/2000/svg" width="24" height="24" fill="none" viewBox="0 0 32 32"><g stroke="#000" stroke-width="1.5"><path d="M13.59 21.534a2.87 2.87 0 0 1-4.972-2.871l4.972 2.87Z" vector-effect="non-scaling-stroke"/><path d="M19.626 24.824 7.998 18.11c-.715-.412-.714-1.212-.248-1.853.108-.148.257-.259.414-.352l1.497-.89a8 8 0 0 0 2.41-2.206l1.296-1.803c.152-.21.312-.414.5-.593.684-.653 2.599-2.217 4.987-1.938l.21-.363a2.129 2.129 0 0 1 3.688 2.129l-.21.363c1.404 1.885 1.056 4.259.831 5.224a4.3 4.3 0 0 1-.313.85l-.848 1.802a8 8 0 0 0-.762 3.408v1.677c0 .19-.022.384-.1.558-.324.717-1.013 1.111-1.724.701Z" vector-effect="non-scaling-stroke"/></g></svg>