<svg xmlns="http://www.w3.org/2000/svg" width="32" height="32" fill="none" viewBox="0 0 32 32"><path stroke="#000" stroke-linecap="round" stroke-linejoin="round" stroke-width="1.5" d="M11.304 9.684C11.304 7.653 12.943 6 14.956 6c2.014 0 3.653 1.653 3.653 3.684 0 2.032-1.639 3.684-3.653 3.684H4m11.478 8.948c0 2.031 1.638 3.684 3.652 3.684 2.014 0 3.653-1.653 3.653-3.684 0-2.032-1.639-3.684-3.653-3.684H4m17.74-6.316c0-1.748 1.397-3.158 3.13-3.158 1.732 0 3.13 1.41 3.13 3.158 0 1.747-1.398 3.158-3.13 3.158h-6.261" vector-effect="non-scaling-stroke"/></svg>