<svg xmlns="http://www.w3.org/2000/svg" width="16" height="16" fill="none" viewBox="0 0 32 32"><path stroke="#000" stroke-width="1.5" d="m13.185 17.504 2.33-3.368v3.368h-2.33Zm-4.764-.944-.004.004a4.894 4.894 0 0 0-.917 2.868v1.027c0 .523.2.982.572 1.355a1.87 1.87 0 0 0 1.356.573h6.088v1.328c0 .523.199.983.572 1.356a1.87 1.87 0 0 0 1.355.572h1.904c.523 0 .983-.2 1.356-.572a1.87 1.87 0 0 0 .572-1.356v-1.328h.577c.523 0 .983-.2 1.356-.573a1.87 1.87 0 0 0 .572-1.355v-1.027c0-.523-.2-.983-.572-1.356a1.87 1.87 0 0 0-1.356-.572h-.577V8.285c0-.523-.2-.983-.572-1.356a1.87 1.87 0 0 0-1.356-.572h-1.904c-1.111 0-2.014.46-2.66 1.36v.001L8.42 16.56Zm12.854 5.55v.002-.001Zm0-4.331s0 .001 0 0Z" vector-effect="non-scaling-stroke"/></svg>