<svg xmlns="http://www.w3.org/2000/svg" width="16" height="16" fill="none" viewBox="0 0 32 32"><path fill="#000" d="M9.285 11.29a.5.5 0 0 1 .691.724l-.69-.723Zm1.299 3.556a.5.5 0 1 1 .154.988l-.154-.988ZM26.5 16.435a.5.5 0 1 1-1 0h1ZM8.797 9.052l.416.276-.416-.276Zm.238 2.998a.5.5 0 1 1-.182.983l.182-.983Zm1.93 1.47a.5.5 0 1 1 .776.63l-.777-.63Zm8.573-2.938.038.499-.038-.498Zm.431 14.985.007-.5-.007.5Zm-2.578-.871-.361-.346a.5.5 0 0 1 .63-.076l-.27.422Zm-6.03 0-.362-.346a.5.5 0 0 1 .722 0l-.36.346Zm-5.644.983a.5.5 0 0 1 .567-.823l-.567.823Zm9.977-12.416a.5.5 0 1 1-.333-.943l.332.943Zm-4.34 8.824-.095.49a.5.5 0 0 1 .095-.99v.5Zm.006 0v-.5a.5.5 0 0 1 .36.846l-.36-.346Zm-5.644.983a.5.5 0 0 1 .568-.823l-.568.823Zm11.416-11.275a.5.5 0 0 1-.36-.933l.36.933Zm5.29 8.48a.5.5 0 0 1-.89-.456l.89.457ZM9.975 12.015c-.852.815-.91 1.59-.709 2.084.211.518.736.839 1.317.748l.154.988a2.207 2.207 0 0 1-2.397-1.359c-.387-.95-.14-2.147.944-3.184l.691.723Zm15.524 4.42c0-5.184-4.11-9.934-8.977-9.934v-1c5.526 0 9.977 5.311 9.977 10.935h-1ZM16.523 6.5c-4.22 0-6.29 1.292-7.31 2.828l-.833-.552C9.646 6.867 12.095 5.5 16.523 5.5v1Zm-7.31 2.828c-.458.691-.75 1.403-.778 1.93-.014.257.037.425.113.533.07.1.203.206.487.259l-.182.983c-.483-.09-.871-.31-1.122-.665-.246-.348-.316-.763-.295-1.163.042-.785.443-1.674.944-2.43l.833.553Zm2.528 4.822c-.4.494-.556.883-.592 1.17a.92.92 0 0 0 .155.668c.127.184.323.338.546.445.225.109.442.154.58.154v1c-.314 0-.679-.091-1.015-.254a2.402 2.402 0 0 1-.933-.775 1.92 1.92 0 0 1-.325-1.365c.067-.526.33-1.084.807-1.673l.777.63Zm.69 2.437c.337 0 .572-.075.75-.186.182-.112.338-.283.485-.525.148-.245.276-.545.407-.9.12-.323.27-.767.415-1.147.308-.806.728-1.693 1.506-2.404.788-.72 1.896-1.219 3.506-1.341l.076.997c-1.43.109-2.314.539-2.908 1.082-.603.551-.955 1.262-1.246 2.023-.155.405-.263.738-.411 1.139-.137.369-.29.741-.49 1.07-.201.332-.459.637-.813.856-.358.222-.78.336-1.277.336v-1Zm7.07-6.503c3.739-.284 6.999 2.829 6.999 7.22h-1c0-3.89-2.843-6.457-5.924-6.223l-.076-.997Zm6.999 7.22c0 5.784-3.197 8.811-6.538 8.763l.014-1c2.603.038 5.524-2.337 5.524-7.762h1Zm-6.538 8.763c-1.07-.015-1.905-.352-2.84-.95l.538-.843c.835.534 1.49.782 2.316.793l-.014 1Zm-2.21-1.025a4.638 4.638 0 0 1-6.753 0l.722-.692a3.638 3.638 0 0 0 5.309 0l.722.692Zm-6.03 0c-1.63 1.7-4.15 1.915-6.005.637l.567-.823c1.455 1.002 3.428.837 4.715-.506l.722.692Zm3.64-12.722a3.49 3.49 0 0 1 1.16-.199v1c-.29 0-.57.05-.828.142l-.333-.943Zm1.16-.199c1.01 0 1.894.514 2.512 1.233.618.718 1.004 1.677 1.004 2.646h-1c0-.712-.288-1.443-.762-1.994-.473-.55-1.097-.885-1.753-.885v-1ZM20.039 16c0 1.753-.796 3.664-2.293 5.004-1.512 1.354-3.718 2.109-6.486 1.574l.19-.982c2.472.478 4.358-.2 5.629-1.337 1.285-1.15 1.96-2.79 1.96-4.26h1Zm-8.684 5.587h.006v1h-.006v-1Zm.367.846c-1.629 1.7-4.149 1.915-6.005.637l.568-.823c1.454 1.002 3.428.837 4.715-.506l.722.692Zm5.051-11.571c1.494-.576 3.139-.09 4.374.985 1.242 1.08 2.123 2.794 2.123 4.805h-1c0-1.715-.75-3.156-1.78-4.051-1.035-.902-2.298-1.215-3.357-.806l-.36-.933Zm6.497 5.79c0 1.372-.319 2.591-.848 3.623l-.89-.456c.457-.89.738-1.953.738-3.167h1Z" vector-effect="non-scaling-stroke"/></svg>