<svg xmlns="http://www.w3.org/2000/svg" width="16" height="16" fill="none" viewBox="0 0 32 32"><g stroke="#000" stroke-linecap="round" stroke-width="1.5"><path d="M16.218 10.978c.5-1 2.006-2.076 2.182-2.076.755 0 7 5.663 7 10.98 0 3.877-3.134 7.02-7 7.02-1.832 0-3.5-.706-4.748-1.862" vector-effect="non-scaling-stroke"/><path stroke-linejoin="round" d="M12.16 25.036c-2.6 0-4.458-1.61-4.458-5.046v-6.468H6v-3.9h1.702V6h4.86v3.621h3.652v3.9h-3.652v5.572c0 .99.217 1.702 1.145 1.702.34 0 .96-.093 1.486-.34l1.207 3.56c-1.052.587-2.136 1.02-4.24 1.02Z" vector-effect="non-scaling-stroke"/></g></svg>