<svg xmlns="http://www.w3.org/2000/svg" width="32" height="32" fill="none" viewBox="0 0 32 32"><path stroke="#000" stroke-linecap="round" stroke-linejoin="round" stroke-width="1.5" d="M5 28.999c0-3.167 3.034-5.154 6.235-5.154h1.43v-2.863M27 28.999c0-3.167-2.148-5.154-5.344-5.154H18.45v-2.863m3.474-12.908v2.29s1.158.51 1.158 1.146v2.29c0 .636-.423 1.146-1.581 1.146 0 3.167-2.513 6.872-5.714 6.872-3.202 0-5.905-3.705-5.905-6.872-1.158 0-1.853-.51-1.853-1.145v-2.29c0-.636 1.158-1.146 1.158-1.146v-2.29c0-1.902.579-4.01 3.473-4.01 6.369-2.863 11 .573 9.264 4.01Z" vector-effect="non-scaling-stroke"/></svg>