<svg xmlns="http://www.w3.org/2000/svg" width="32" height="32" fill="none" viewBox="0 0 24 24"><g stroke="#000" stroke-linecap="round" stroke-width="1.5"><path stroke-opacity=".12" d="M2.5 17.25c0 .966.711 1.75 1.59 1.75h2.965m5.95-14H4.09C3.211 5 2.5 5.784 2.5 6.75v.838c0 .199.163.355.357.397.702.15 1.226.736 1.226 1.436s-.524 1.286-1.226 1.436c-.194.042-.357.199-.357.397v1.492c0 .198.163.355.357.397.702.15 1.226.736 1.226 1.436s-.524 1.285-1.226 1.436c-.194.042-.357.198-.357.397v.746" vector-effect="non-scaling-stroke"/><path d="M21.5 17.25c0 .966-.712 1.75-1.59 1.75H7.498M13.77 5h6.14c.878 0 1.59.784 1.59 1.75v.838c0 .199-.163.355-.357.397-.702.15-1.226.736-1.226 1.436s.524 1.286 1.226 1.436c.194.042.357.199.357.397v1.492c0 .198-.163.355-.357.397-.702.15-1.226.736-1.226 1.436s.524 1.285 1.226 1.436c.194.042.357.198.357.397v.746m-6.135 1.29v-1.106m0-1.842v-1.105m0-1.842v-1.106m0-1.842V8.5m0-1.842V5.553" vector-effect="non-scaling-stroke"/><path d="M14.894 1.45 6.073 21.92" vector-effect="non-scaling-stroke"/></g></svg>