<svg xmlns="http://www.w3.org/2000/svg" width="32" height="32" fill="none" viewBox="0 0 32 32"><path stroke="#000" stroke-linecap="round" stroke-miterlimit="10" stroke-width="1.5" d="M24.207 9.795 21.866 7.64a.54.54 0 0 0-.732 0L15.35 12.96a1.087 1.087 0 0 0-.352.8v13.653c0 .6.485 1.087 1.084 1.087h10.834c.6 0 1.084-.486 1.084-1.087V13.761c0-.305-.127-.595-.352-.801l-2.04-1.789m-6.276 13.525 4.334-7.609m-2.167-5.978a3.798 3.798 0 0 0 3.792-3.805A3.798 3.798 0 0 0 21.5 3.5a3.798 3.798 0 0 0-3.792 3.804c0 .29.032.574.094.846m3.698 1.872v2.174M15.87 9.293l-2.442 1.341c-.266.146-.46.398-.532.694L9.65 24.584a1.087 1.087 0 0 0 .794 1.314l2.955.728m2.007-19.342-2.522.306a1.085 1.085 0 0 0-.751.446l-7.93 11.102a1.09 1.09 0 0 0 .249 1.517l3.776 2.717m12.175-4.794c0 .823-.665 1.49-1.486 1.49-.82 0-1.486-.667-1.486-1.49s.665-1.49 1.486-1.49c.82 0 1.486.667 1.486 1.49Zm5.254 4.247c0 .823-.666 1.49-1.486 1.49s-1.486-.667-1.486-1.49.665-1.49 1.486-1.49c.82 0 1.486.667 1.486 1.49Z" vector-effect="non-scaling-stroke"/></svg>