<svg xmlns="http://www.w3.org/2000/svg" width="16" height="16" fill="none" viewBox="0 0 32 32"><path stroke="#000" stroke-linecap="round" stroke-miterlimit="10" stroke-width="1.5" d="M21.988 12.2c1.566.577 4.438 1.691 5.026 2.29 1.77 1.802 2.11 6.18 2.027 8.587-.07 2.003.845 4.37.845 4.37m-5.59-10.205c-1.206-1.469-2.358-1.458-3.262-2.407-1.76-1.848-1.592-1.712-3.206-3.391-.958-.997-1.611-1.585-2.629-.95-.854.535-.79 1.26-.4 2.19.478 1.135 3.086 4.8 3.631 5.656.118.184.184.394.192.613.045 1.187.245 4.551 4.716 5.948m-6.37-2.53c1.116 2.866 2.774 3.225 3.944 5.806m-4.468-8.602a8.633 8.633 0 0 1-8.064 1.21c-4.517-1.61-6.87-6.608-5.256-11.162 1.615-4.554 6.585-6.94 11.103-5.328 3.16 1.128 5.261 3.914 5.685 7.046m.035 2.061a8.774 8.774 0 0 0-.034-2.061M8.367 7.996l5.06 1.095c.158.034.306.088.444.159m-.88 3.497-4.252-.92M6.816 15.16l5.77 1.25a1.82 1.82 0 0 0 1.821-.666M9.514 8.244l-1.55 7.166m2.698-6.918.36-1.665m1.774 2.127.36-1.665M8.752 17.323l.36-1.665m1.774 2.127.36-1.665" vector-effect="non-scaling-stroke"/></svg>