<svg xmlns="http://www.w3.org/2000/svg" width="32" height="32" fill="none" viewBox="0 0 32 32"><g stroke="#000" stroke-linecap="round" stroke-linejoin="round" stroke-miterlimit="10" stroke-width="1.5"><path d="M16 5 4 9.947v.55l.522 1.099h22.956l.522-1.1v-.55L16 5Z" vector-effect="non-scaling-stroke"/><path d="M20.174 23.688v-7.145c0-.438.165-.857.458-1.166.294-.31.692-.483 1.107-.483.415 0 .813.174 1.107.483.293.309.458.728.458 1.166v7.145" vector-effect="non-scaling-stroke"/><path d="M14.435 23.688v-7.145c0-.438.165-.857.459-1.166.293-.31.692-.483 1.107-.483.415 0 .813.174 1.107.483.293.309.458.728.458 1.166v7.145" vector-effect="non-scaling-stroke"/><path d="M8.695 23.688v-7.145c0-.438.165-.857.459-1.166.293-.31.691-.483 1.107-.483v0c.415 0 .813.174 1.106.483.294.309.459.728.459 1.166v7.145" vector-effect="non-scaling-stroke"/><path d="M5.043 13.245v1.1l1.043.549v9.344" vector-effect="non-scaling-stroke"/><path d="M25.913 24.238v-9.344l1.044-.55v-1.1" vector-effect="non-scaling-stroke"/><path d="M4.521 24.238h22.957" vector-effect="non-scaling-stroke"/><path d="M4.521 27h22.957" vector-effect="non-scaling-stroke"/></g></svg>