<svg xmlns="http://www.w3.org/2000/svg" width="24" height="24" fill="none" viewBox="0 0 32 32"><g stroke="#000" stroke-miterlimit="10" stroke-width="1.5"><path d="m20.226 15.223 5.24-7.185c.353-.442.511-1 .438-1.549a2.049 2.049 0 0 0-.825-1.381 2.223 2.223 0 0 0-1.606-.406 2.223 2.223 0 0 0-1.446.809l-5.256 7.186-11.076 2.526c-.118 2.504 1.902 5.829 5.35 8.363 3.448 2.534 6.841 4.22 9.333 3.46l-.152-11.823Z" vector-effect="non-scaling-stroke"/><path d="M20.371 15.031c-.288.351-1.294.077-2.241-.62-.948-.696-1.485-1.556-1.207-1.914" vector-effect="non-scaling-stroke"/><path stroke-linecap="round" d="m11.664 17.2-4.338 2.373" vector-effect="non-scaling-stroke"/><path stroke-linecap="round" d="m13.261 20.6-2.036 2.663" vector-effect="non-scaling-stroke"/><path stroke-linecap="round" d="m17.346 21.642-1.648 4.427" vector-effect="non-scaling-stroke"/></g></svg>