<svg xmlns="http://www.w3.org/2000/svg" width="16" height="16" fill="none" viewBox="0 0 32 32"><path stroke="#000" stroke-linecap="round" stroke-linejoin="round" stroke-width="1.5" d="M10.896 22.577a3.65 3.65 0 0 0 3.646-3.654 3.65 3.65 0 0 0-3.646-3.654m0 7.308a3.65 3.65 0 0 1-3.646-3.654 3.65 3.65 0 0 1 3.646-3.654m0 7.308V25.5m0-10.23V6.5m10.208 10.23a3.65 3.65 0 0 0 3.646-3.653 3.65 3.65 0 0 0-3.646-3.654m0 7.308a3.65 3.65 0 0 1-3.646-3.654 3.65 3.65 0 0 1 3.646-3.654m0 7.308V25.5m0-16.077V6.5" vector-effect="non-scaling-stroke"/></svg>