<svg xmlns="http://www.w3.org/2000/svg" width="32" height="32" fill="none" viewBox="0 0 32 32"><path fill="#000" d="M8 12.938a.5.5 0 0 0 0 1v-1Zm3.604.972.43.255-.43-.255ZM8.28 19.528l.43.254-.43-.254Zm3.604.972a.5.5 0 0 0 0-1v1ZM24.5 10a.5.5 0 0 0-1 0h1Zm-10.287 2.938a.5.5 0 0 0 0 1v-1Zm4.04 1a.5.5 0 1 0 0-1v1Zm-4.04 2.28a.5.5 0 1 0 0 1v-1Zm4.04 1a.5.5 0 0 0 0-1v1Zm-4.04 2.282a.5.5 0 0 0 0 1v-1Zm4.04 1a.5.5 0 0 0 0-1v1ZM8 13.937h3.337v-1H8v1Zm3.174-.282-3.325 5.618.86.51 3.325-5.619-.86-.509ZM8.546 20.5h3.338v-1H8.546v1Zm-.697-1.227a.813.813 0 0 0 .697 1.227v-1c.152 0 .235.162.164.282l-.86-.509Zm3.488-5.335a.187.187 0 0 1-.163-.283l.86.51a.813.813 0 0 0-.697-1.227v1ZM23.5 10v9.375h1V10h-1Zm-.121 9.5h-2.486v1h2.486v-1Zm-2.607-.125v-5.313h-1v5.313h1Zm.121-5.438h2.952v-1h-2.952v1Zm-.121.126c0-.072.057-.126.121-.126v-1c-.622 0-1.121.507-1.121 1.126h1Zm.121 5.437a.123.123 0 0 1-.121-.125h-1c0 .619.5 1.125 1.121 1.125v-1Zm2.607-.125a.123.123 0 0 1-.121.125v1c.622 0 1.121-.506 1.121-1.125h-1Zm-9.287-5.438h4.04v-1h-4.04v1Zm0 3.282h4.04v-1h-4.04v1Zm0 3.281h4.04v-1h-4.04v1Z" vector-effect="non-scaling-stroke"/><rect width="32" height="32" x="4" y="4" stroke="#000" stroke-width="1.5" rx="4" vector-effect="non-scaling-stroke"/></svg>