<svg width="32" height="32" viewBox="0 0 32 32" fill="none" xmlns="http://www.w3.org/2000/svg">
<g id="Sport=boat-racing">
<path id="boat-racing" d="M7.63164 13.6013L7.79319 14.0745L7.88092 14.0445L7.95208 13.9851L7.63164 13.6013ZM11.0614 10.7379L10.7842 10.3217L10.7617 10.3367L10.741 10.354L11.0614 10.7379ZM14.9357 9.06789L14.8751 8.57158L14.9357 9.06789ZM17.7702 9.36256L17.6161 9.83824L17.621 9.83978L17.7702 9.36256ZM20.3167 10.1587L20.517 9.70058L20.492 9.68962L20.4659 9.68146L20.3167 10.1587ZM21.9411 10.3439L21.9725 10.8429L21.9411 10.3439ZM26.726 10.475L26.645 10.9686L26.6569 10.9702L26.726 10.475ZM27.8156 10.6272L27.7464 11.1224L27.8329 11.1345L27.9184 11.1166L27.8156 10.6272ZM29.4684 10.28L29.3978 9.78495L29.3816 9.78727L29.3655 9.79064L29.4684 10.28ZM29.9566 10.3439L30.3986 10.1101L30.3625 10.0418L30.3074 9.98761L29.9566 10.3439ZM29.7475 10.9825L29.4043 10.6189V10.6189L29.7475 10.9825ZM23.6677 15.3321L23.9175 15.7652L23.9336 15.7559L23.949 15.7454L23.6677 15.3321ZM1.95327 18.3576C2.00942 18.628 2.27411 18.8017 2.54449 18.7455C2.81486 18.6894 2.98853 18.4247 2.93239 18.1543L1.95327 18.3576ZM2.03288 16.2818L2.52244 16.1801L2.03288 16.2818ZM2.8811 14.716L2.81036 14.221H2.81036L2.8811 14.716ZM5.43661 14.3507L5.50735 14.8457L5.55378 14.839L5.59816 14.8239L5.43661 14.3507ZM2.21006 15.1776L1.77814 14.9257H1.77814L2.21006 15.1776ZM14.9351 10.4311L15.0774 10.9105L15.0862 10.9077L14.9351 10.4311ZM14.2092 10.9673L13.7754 10.7187L13.7483 10.766L13.732 10.8181L14.2092 10.9673ZM13.905 11.9399L13.4278 11.7906V11.7906L13.905 11.9399ZM14.2692 12.3314L14.1097 11.8576L14.2692 12.3314ZM16.2375 14.2569L16.0419 13.7968L16.0281 13.8026L16.0147 13.8093L16.2375 14.2569ZM23.3105 11.7744L23.1863 11.2899L23.1743 11.2933L23.3105 11.7744ZM2.6823 17.9685C2.53166 17.7371 2.22193 17.6716 1.99049 17.8222C1.75905 17.9728 1.69355 18.2826 1.84418 18.514L2.6823 17.9685ZM6.67375 18.2413V17.7413C6.53184 17.7413 6.39663 17.8016 6.30179 17.9071L6.67375 18.2413ZM6.70235 18.2413L7.12145 17.9686C7.0292 17.8268 6.87151 17.7413 6.70235 17.7413V18.2413ZM11.1122 18.2413V17.7413C10.9703 17.7413 10.835 17.8016 10.7402 17.9071L11.1122 18.2413ZM11.1394 18.2413L11.5585 17.9686C11.4662 17.8268 11.3085 17.7413 11.1394 17.7413V18.2413ZM15.5506 18.2413V17.7413C15.4087 17.7413 15.2735 17.8015 15.1787 17.907L15.5506 18.2413ZM15.5771 18.2413L15.9962 17.9686C15.9039 17.8268 15.7462 17.7413 15.5771 17.7413V18.2413ZM19.9876 18.2413V17.7413C19.8457 17.7413 19.7105 17.8015 19.6157 17.9071L19.9876 18.2413ZM20.0141 18.2413L20.4332 17.9686C20.341 17.8268 20.1833 17.7413 20.0141 17.7413V18.2413ZM24.4246 18.2413V17.7413C24.2827 17.7413 24.1475 17.8015 24.0527 17.9071L24.4246 18.2413ZM24.4511 18.2413L24.8702 17.9686C24.778 17.8268 24.6203 17.7413 24.4511 17.7413V18.2413ZM29.2335 18.5755C29.4181 18.3701 29.4012 18.0539 29.1958 17.8694C28.9904 17.6848 28.6743 17.7017 28.4897 17.9071L29.2335 18.5755ZM13.2897 21.2347C13.0136 21.2347 12.7897 21.4586 12.7897 21.7347C12.7897 22.0108 13.0136 22.2347 13.2897 22.2347V21.2347ZM13.3162 21.7347L13.7353 21.462C13.6431 21.3202 13.4854 21.2347 13.3162 21.2347V21.7347ZM17.7267 21.7347V21.2347C17.5849 21.2347 17.4497 21.295 17.3548 21.4005L17.7267 21.7347ZM17.7532 21.7347L18.1723 21.462C18.0801 21.3202 17.9224 21.2347 17.7532 21.2347V21.7347ZM22.1638 21.7347V21.2347C22.0219 21.2347 21.8867 21.295 21.7918 21.4005L22.1638 21.7347ZM22.1903 21.7347L22.6094 21.462C22.5171 21.3202 22.3594 21.2347 22.1903 21.2347V21.7347ZM26.9727 22.0689C27.1572 21.8635 27.1404 21.5474 26.935 21.3628C26.7296 21.1782 26.4134 21.1951 26.2289 21.4005L26.9727 22.0689ZM7.95208 13.9851L11.3818 11.1217L10.741 10.354L7.3112 13.2175L7.95208 13.9851ZM11.3386 11.154C11.6864 10.9223 12.299 10.5579 12.9851 10.233C13.6794 9.90415 14.4068 9.6362 14.9963 9.5642L14.8751 8.57158C14.1249 8.66321 13.2817 8.98601 12.5571 9.32917C11.8244 9.67619 11.1697 10.0649 10.7842 10.3217L11.3386 11.154ZM14.9963 9.5642C15.2436 9.53399 15.5154 9.48758 15.9209 9.50302C16.3249 9.51839 16.8715 9.59694 17.6161 9.83821L17.9243 8.8869C17.1012 8.6202 16.4637 8.52295 15.9589 8.50374C15.4557 8.48459 15.0941 8.54483 14.8751 8.57158L14.9963 9.5642ZM17.621 9.83978L20.1675 10.6359L20.4659 9.68146L17.9194 8.88533L17.621 9.83978ZM20.1163 10.6168C20.3943 10.7384 21.0693 10.8996 21.9725 10.8429L21.9098 9.84485C21.1326 9.89366 20.6219 9.74643 20.517 9.70058L20.1163 10.6168ZM21.9725 10.8429C22.2551 10.8251 22.5064 10.7895 22.7468 10.7589C22.99 10.728 23.2393 10.6995 23.5505 10.6881C24.1728 10.6654 25.0712 10.71 26.645 10.9684L26.807 9.98166C25.1937 9.71676 24.2248 9.66282 23.514 9.68881C23.1586 9.70181 22.8749 9.73456 22.6205 9.76695C22.3632 9.79971 22.1522 9.82962 21.9098 9.84485L21.9725 10.8429ZM26.6569 10.9702L27.7464 11.1224L27.8847 10.132L26.7952 9.97986L26.6569 10.9702ZM27.9184 11.1166L29.5712 10.7693L29.3655 9.79064L27.7128 10.1379L27.9184 11.1166ZM29.5389 10.775C29.5713 10.7703 29.6018 10.7665 29.6309 10.7642C29.6604 10.7619 29.6828 10.7616 29.6986 10.7625C29.7156 10.7635 29.7143 10.7652 29.7009 10.7609C29.6868 10.7564 29.6473 10.7411 29.6058 10.7001L30.3074 9.98761C30.1202 9.80324 29.8817 9.77127 29.7549 9.76412C29.6125 9.75609 29.4765 9.77374 29.3978 9.78495L29.5389 10.775ZM29.5146 10.5776C29.516 10.5803 29.5096 10.5684 29.5052 10.553C29.5008 10.5375 29.4991 10.5216 29.5004 10.5076C29.5017 10.493 29.5052 10.4927 29.4969 10.5083C29.4877 10.5253 29.4632 10.5633 29.4043 10.6189L30.0908 11.3461C30.3394 11.1114 30.4727 10.8573 30.4963 10.5984C30.5195 10.3439 30.4279 10.1655 30.3986 10.1101L29.5146 10.5776ZM29.4043 10.6189C29.1252 10.8824 28.4324 11.407 27.38 12.1561C26.3398 12.8965 24.9779 13.8355 23.3864 14.9188L23.949 15.7454C25.5422 14.6612 26.9109 13.7174 27.9599 12.9708C28.9965 12.2329 29.7513 11.6665 30.0908 11.3461L29.4043 10.6189ZM23.418 14.899C21.1836 16.1874 19.5499 16.8231 15.6824 18.0033L15.9743 18.9598C19.8709 17.7706 21.5874 17.1088 23.9175 15.7652L23.418 14.899ZM2.93239 18.1543L2.52244 16.1801L1.54333 16.3834L1.95327 18.3576L2.93239 18.1543ZM2.95185 15.2109L5.50735 14.8457L5.36586 13.8557L2.81036 14.221L2.95185 15.2109ZM5.59816 14.8239L7.79319 14.0745L7.47009 13.1281L5.27506 13.8775L5.59816 14.8239ZM2.64197 15.4295C2.71621 15.3022 2.83295 15.2279 2.95185 15.2109L2.81036 14.221C2.37423 14.2833 1.99856 14.5478 1.77814 14.9257L2.64197 15.4295ZM2.52244 16.1801C2.46859 15.9208 2.51288 15.6509 2.64197 15.4295L1.77814 14.9257C1.52281 15.3635 1.43999 15.8858 1.54333 16.3834L2.52244 16.1801ZM17.9134 8.96248L14.784 9.95443L15.0862 10.9077L18.2156 9.91573L17.9134 8.96248ZM14.7928 9.95173C14.6639 9.99001 14.4833 10.0665 14.3046 10.1817C14.1275 10.2959 13.9178 10.4703 13.7754 10.7187L14.643 11.216C14.6779 11.1551 14.7471 11.0863 14.8465 11.0222C14.9445 10.959 15.0382 10.922 15.0774 10.9104L14.7928 9.95173ZM13.732 10.8181L13.4278 11.7906L14.3822 12.0892L14.6864 11.1166L13.732 10.8181ZM14.4287 12.8053L20.6253 10.7194L20.3063 9.77164L14.1097 11.8576L14.4287 12.8053ZM13.4278 11.7906C13.2517 12.3534 13.7507 13.0336 14.4287 12.8053L14.1097 11.8576C14.2042 11.8258 14.2947 11.8646 14.3401 11.9135C14.3837 11.9603 14.4012 12.0283 14.3822 12.0892L13.4278 11.7906ZM7.46278 19.1831L16.4603 14.7045L16.0147 13.8093L7.01717 18.2879L7.46278 19.1831ZM16.4331 14.7171C19.0482 13.6055 20.2502 13.1605 23.4467 12.2555L23.1743 11.2933C19.9359 12.2101 18.6943 12.6693 16.0419 13.7968L16.4331 14.7171ZM23.4347 12.2587L27.9682 11.0967L27.7199 10.128L23.1864 11.29L23.4347 12.2587ZM2.26324 18.2413C1.84418 18.514 1.84433 18.5142 1.84449 18.5145C1.84455 18.5146 1.84472 18.5148 1.84485 18.515C1.8451 18.5154 1.84538 18.5158 1.84569 18.5163C1.84631 18.5173 1.84705 18.5184 1.84791 18.5197C1.84962 18.5223 1.8518 18.5255 1.85445 18.5294C1.85974 18.5372 1.86689 18.5477 1.87588 18.5604C1.89384 18.5859 1.9192 18.6209 1.95169 18.6631C2.01651 18.7473 2.11068 18.8616 2.23215 18.988C2.47219 19.2379 2.83414 19.5512 3.30251 19.764C3.77829 19.9803 4.36568 20.0928 5.02699 19.9274C5.68262 19.7633 6.35978 19.3389 7.0457 18.5754L6.30179 17.9071C5.70893 18.5671 5.19538 18.8544 4.78427 18.9573C4.37884 19.0587 4.02346 18.9933 3.7163 18.8537C3.40173 18.7107 3.14061 18.4902 2.95329 18.2952C2.86109 18.1992 2.79052 18.1134 2.74401 18.053C2.72084 18.0229 2.7039 17.9994 2.69346 17.9846C2.68826 17.9772 2.68469 17.972 2.68281 17.9692C2.68188 17.9679 2.68136 17.9671 2.68127 17.9669C2.68123 17.9669 2.68129 17.967 2.68146 17.9672C2.68155 17.9674 2.68166 17.9675 2.6818 17.9677C2.68187 17.9679 2.68199 17.968 2.68203 17.9681C2.68216 17.9683 2.6823 17.9685 2.26324 18.2413ZM6.67375 18.7413H6.70235V17.7413H6.67375V18.7413ZM6.70235 18.2413C6.28324 18.5139 6.2834 18.5142 6.28356 18.5144C6.28362 18.5145 6.28379 18.5148 6.28391 18.515C6.28416 18.5153 6.28445 18.5158 6.28476 18.5162C6.28538 18.5172 6.28612 18.5183 6.28697 18.5196C6.28868 18.5222 6.29086 18.5254 6.29351 18.5294C6.2988 18.5372 6.30595 18.5476 6.31493 18.5604C6.33289 18.5859 6.35824 18.6208 6.39072 18.663C6.45552 18.7472 6.54966 18.8615 6.6711 18.9879C6.91107 19.2378 7.27294 19.5511 7.74123 19.764C8.21694 19.9803 8.80427 20.0928 9.46553 19.9274C10.1211 19.7633 10.7982 19.3389 11.4841 18.5754L10.7402 17.9071C10.1473 18.5671 9.63383 18.8544 9.22278 18.9573C8.81743 19.0587 8.46215 18.9933 8.1551 18.8537C7.84063 18.7107 7.5796 18.4902 7.39234 18.2953C7.30018 18.1993 7.22963 18.1134 7.18314 18.053C7.15998 18.023 7.14304 17.9995 7.13262 17.9847C7.12741 17.9773 7.12385 17.9721 7.12197 17.9693C7.12103 17.9679 7.12052 17.9671 7.12043 17.967C7.12039 17.9669 7.12045 17.967 7.12062 17.9673C7.1207 17.9674 7.12082 17.9676 7.12095 17.9678C7.12102 17.9679 7.12115 17.9681 7.12118 17.9682C7.12132 17.9684 7.12145 17.9686 6.70235 18.2413ZM11.1122 18.7413H11.1394V17.7413H11.1122V18.7413ZM11.1394 18.2413C10.7203 18.5139 10.7204 18.5142 10.7206 18.5144C10.7206 18.5145 10.7208 18.5148 10.7209 18.515C10.7212 18.5153 10.7215 18.5158 10.7218 18.5162C10.7224 18.5172 10.7231 18.5183 10.724 18.5196C10.7257 18.5222 10.7279 18.5254 10.7305 18.5294C10.7358 18.5372 10.743 18.5476 10.752 18.5604C10.7699 18.5859 10.7953 18.6208 10.8278 18.663C10.8926 18.7472 10.9867 18.8615 11.1082 18.988C11.3482 19.2378 11.7101 19.5511 12.1785 19.764C12.6543 19.9803 13.2417 20.0928 13.9031 19.9274C14.5588 19.7633 15.2362 19.339 15.9224 18.5755L15.1787 17.907C14.5855 18.567 14.0717 18.8544 13.6604 18.9573C13.2548 19.0587 12.8994 18.9933 12.5923 18.8537C12.2777 18.7107 12.0166 18.4902 11.8294 18.2952C11.7372 18.1993 11.6666 18.1134 11.6202 18.053C11.597 18.0229 11.5801 17.9995 11.5696 17.9847C11.5644 17.9773 11.5609 17.9721 11.559 17.9693C11.5581 17.9679 11.5575 17.9671 11.5574 17.967C11.5574 17.9669 11.5575 17.967 11.5576 17.9673C11.5577 17.9674 11.5578 17.9676 11.558 17.9678C11.558 17.9679 11.5582 17.9681 11.5582 17.9682C11.5583 17.9684 11.5585 17.9686 11.1394 18.2413ZM15.5506 18.7413H15.5771V17.7413H15.5506V18.7413ZM15.5771 18.2413C15.158 18.5139 15.1581 18.5142 15.1583 18.5144C15.1584 18.5145 15.1585 18.5148 15.1586 18.515C15.1589 18.5153 15.1592 18.5158 15.1595 18.5162C15.1601 18.5172 15.1609 18.5183 15.1617 18.5196C15.1634 18.5222 15.1656 18.5254 15.1682 18.5294C15.1735 18.5372 15.1807 18.5476 15.1897 18.5604C15.2076 18.5859 15.233 18.6208 15.2655 18.663C15.3303 18.7472 15.4244 18.8615 15.5459 18.988C15.7858 19.2378 16.1477 19.5511 16.6161 19.764C17.0918 19.9803 17.6792 20.0928 18.3405 19.9274C18.9962 19.7633 19.6734 19.339 20.3595 18.5755L19.6157 17.9071C19.0226 18.567 18.509 18.8544 18.0978 18.9573C17.6924 19.0587 17.337 18.9933 17.0299 18.8537C16.7154 18.7107 16.4543 18.4902 16.2671 18.2953C16.1749 18.1993 16.1044 18.1134 16.0579 18.053C16.0347 18.0229 16.0178 17.9995 16.0073 17.9847C16.0021 17.9773 15.9986 17.9721 15.9967 17.9693C15.9958 17.9679 15.9953 17.9671 15.9952 17.967C15.9951 17.9669 15.9952 17.967 15.9954 17.9673C15.9954 17.9674 15.9956 17.9676 15.9957 17.9678C15.9958 17.9679 15.9959 17.9681 15.9959 17.9682C15.996 17.9684 15.9962 17.9686 15.5771 18.2413ZM19.9876 18.7413H20.0141V17.7413H19.9876V18.7413ZM20.0141 18.2413C19.595 18.5139 19.5951 18.5142 19.5953 18.5144C19.5954 18.5145 19.5955 18.5148 19.5957 18.515C19.5959 18.5153 19.5962 18.5158 19.5965 18.5162C19.5971 18.5172 19.5979 18.5183 19.5987 18.5196C19.6004 18.5222 19.6026 18.5254 19.6053 18.5294C19.6105 18.5372 19.6177 18.5476 19.6267 18.5604C19.6446 18.5859 19.67 18.6208 19.7025 18.663C19.7673 18.7472 19.8614 18.8615 19.9829 18.988C20.2229 19.2378 20.5848 19.5511 21.0531 19.764C21.5288 19.9803 22.1162 20.0928 22.7776 19.9274C23.4332 19.7633 24.1104 19.339 24.7965 18.5755L24.0527 17.9071C23.4597 18.567 22.946 18.8544 22.5348 18.9573C22.1294 19.0587 21.774 18.9933 21.4669 18.8537C21.1524 18.7107 20.8914 18.4902 20.7041 18.2953C20.6119 18.1993 20.5414 18.1134 20.4949 18.053C20.4717 18.0229 20.4548 17.9995 20.4444 17.9847C20.4392 17.9773 20.4356 17.9721 20.4337 17.9693C20.4328 17.9679 20.4323 17.9671 20.4322 17.967C20.4321 17.9669 20.4322 17.967 20.4324 17.9673C20.4325 17.9674 20.4326 17.9676 20.4327 17.9678C20.4328 17.9679 20.4329 17.9681 20.4329 17.9682C20.4331 17.9684 20.4332 17.9686 20.0141 18.2413ZM24.4246 18.7413H24.4511V17.7413H24.4246V18.7413ZM24.4511 18.2413C24.032 18.5139 24.0322 18.5142 24.0323 18.5144C24.0324 18.5145 24.0326 18.5148 24.0327 18.515C24.0329 18.5153 24.0332 18.5158 24.0335 18.5162C24.0341 18.5172 24.0349 18.5183 24.0357 18.5196C24.0375 18.5222 24.0396 18.5254 24.0423 18.5294C24.0476 18.5372 24.0547 18.5476 24.0637 18.5604C24.0817 18.5859 24.107 18.6208 24.1395 18.663C24.2043 18.7472 24.2984 18.8615 24.4199 18.988C24.6599 19.2378 25.0218 19.5511 25.4901 19.764C25.9659 19.9803 26.5532 20.0928 27.2146 19.9274C27.8702 19.7633 28.5475 19.339 29.2335 18.5755L28.4897 17.9071C27.8967 18.567 27.383 18.8544 26.9719 18.9573C26.5664 19.0587 26.211 18.9933 25.9039 18.8537C25.5894 18.7107 25.3284 18.4902 25.1411 18.2953C25.0489 18.1993 24.9784 18.1134 24.9319 18.053C24.9088 18.0229 24.8918 17.9995 24.8814 17.9847C24.8762 17.9773 24.8726 17.9721 24.8707 17.9693C24.8698 17.9679 24.8693 17.9671 24.8692 17.967C24.8692 17.9669 24.8692 17.967 24.8694 17.9673C24.8695 17.9674 24.8696 17.9676 24.8697 17.9678C24.8698 17.9679 24.8699 17.9681 24.87 17.9682C24.8701 17.9684 24.8702 17.9686 24.4511 18.2413ZM13.2897 22.2347H13.3162V21.2347H13.2897V22.2347ZM13.3162 21.7347C12.8971 22.0074 12.8973 22.0076 12.8974 22.0078C12.8975 22.0079 12.8977 22.0082 12.8978 22.0084C12.898 22.0088 12.8983 22.0092 12.8986 22.0097C12.8993 22.0106 12.9 22.0117 12.9008 22.013C12.9026 22.0156 12.9047 22.0189 12.9074 22.0228C12.9127 22.0306 12.9198 22.041 12.9288 22.0538C12.9468 22.0793 12.9721 22.1143 13.0046 22.1565C13.0694 22.2406 13.1635 22.3549 13.285 22.4814C13.525 22.7313 13.8869 23.0446 14.3552 23.2575C14.831 23.4737 15.4183 23.5863 16.0797 23.4208C16.7353 23.2568 17.4126 22.8324 18.0986 22.0689L17.3548 21.4005C16.7618 22.0605 16.2481 22.3478 15.837 22.4507C15.4315 22.5521 15.0761 22.4867 14.769 22.3471C14.4545 22.2041 14.1935 21.9837 14.0062 21.7887C13.9141 21.6927 13.8435 21.6069 13.797 21.5465C13.7739 21.5164 13.7569 21.4929 13.7465 21.4781C13.7413 21.4707 13.7377 21.4655 13.7358 21.4628C13.7349 21.4614 13.7344 21.4606 13.7343 21.4605C13.7343 21.4604 13.7343 21.4605 13.7345 21.4607C13.7346 21.4609 13.7347 21.461 13.7348 21.4613C13.7349 21.4614 13.735 21.4616 13.7351 21.4616C13.7352 21.4618 13.7353 21.462 13.3162 21.7347ZM17.7267 22.2347H17.7532V21.2347H17.7267V22.2347ZM17.7532 21.7347C17.3341 22.0074 17.3343 22.0076 17.3344 22.0078C17.3345 22.0079 17.3347 22.0082 17.3348 22.0084C17.3351 22.0088 17.3353 22.0092 17.3356 22.0097C17.3363 22.0106 17.337 22.0117 17.3379 22.013C17.3396 22.0156 17.3418 22.0189 17.3444 22.0228C17.3497 22.0306 17.3568 22.041 17.3658 22.0538C17.3838 22.0793 17.4091 22.1143 17.4416 22.1565C17.5064 22.2406 17.6006 22.3549 17.722 22.4814C17.962 22.7313 18.3239 23.0446 18.7922 23.2575C19.268 23.4737 19.8554 23.5863 20.5167 23.4208C21.1723 23.2568 21.8496 22.8324 22.5357 22.0689L21.7918 21.4005C21.1988 22.0605 20.6852 22.3478 20.274 22.4507C19.8685 22.5521 19.5132 22.4867 19.2061 22.3471C18.8916 22.2041 18.6305 21.9837 18.4432 21.7887C18.3511 21.6927 18.2805 21.6069 18.234 21.5465C18.2109 21.5164 18.1939 21.4929 18.1835 21.4781C18.1783 21.4707 18.1747 21.4655 18.1729 21.4628C18.1719 21.4614 18.1714 21.4606 18.1713 21.4605C18.1713 21.4604 18.1713 21.4605 18.1715 21.4607C18.1716 21.4609 18.1717 21.461 18.1718 21.4613C18.1719 21.4614 18.172 21.4616 18.1721 21.4616C18.1722 21.4618 18.1723 21.462 17.7532 21.7347ZM22.1638 22.2347H22.1903V21.2347H22.1638V22.2347ZM22.1903 21.7347C21.7712 22.0074 21.7713 22.0076 21.7715 22.0078C21.7715 22.0079 21.7717 22.0082 21.7718 22.0084C21.7721 22.0088 21.7724 22.0092 21.7727 22.0097C21.7733 22.0106 21.774 22.0117 21.7749 22.013C21.7766 22.0156 21.7788 22.0189 21.7814 22.0228C21.7867 22.0306 21.7939 22.041 21.8028 22.0538C21.8208 22.0793 21.8462 22.1143 21.8786 22.1565C21.9434 22.2406 22.0376 22.3549 22.159 22.4814C22.399 22.7313 22.7609 23.0446 23.2293 23.2575C23.705 23.4737 24.2924 23.5863 24.9537 23.4208C25.6094 23.2568 26.2866 22.8324 26.9727 22.0689L26.2289 21.4005C25.6358 22.0605 25.1222 22.3478 24.711 22.4507C24.3055 22.5521 23.9502 22.4867 23.6431 22.3471C23.3286 22.2041 23.0675 21.9837 22.8803 21.7887C22.7881 21.6927 22.7175 21.6069 22.6711 21.5465C22.6479 21.5164 22.631 21.4929 22.6205 21.4781C22.6153 21.4707 22.6118 21.4655 22.6099 21.4628C22.6089 21.4614 22.6084 21.4606 22.6083 21.4605C22.6083 21.4604 22.6084 21.4605 22.6085 21.4607C22.6086 21.4609 22.6087 21.461 22.6089 21.4613C22.6089 21.4614 22.6091 21.4616 22.6091 21.4616C22.6092 21.4618 22.6094 21.462 22.1903 21.7347Z" fill="black"/>
</g>
</svg>
