<svg xmlns="http://www.w3.org/2000/svg" width="16" height="16" fill="none" viewBox="0 0 32 32"><g stroke="#000" stroke-width="1.5"><path d="m19.025 17.23 9.248-11.415a1.142 1.142 0 1 0-1.782-1.427l-9.265 11.587m-4.624 5.08 2.47 1.978m-3.568-.636 4.645-5.855a1.65 1.65 0 1 1 2.564 2.077l-5.14 6.256c-1.643 2.1-3.262 2.914-5.396 2.392-1.024-.174-1.892-.804-2.51-1.755-1.12-1.68-.996-3.795-.821-4.37.208-.77.896-1.38 1.643-1.414a1.4 1.4 0 0 1 .386.025c.454.077.845.304 1.095.669.25.364.33.82.294 1.258-.048.516.002 1.37.29 1.742.226.28.64.445 1 .385.6-.001 1.146-.58 1.95-1.41Z" vector-effect="non-scaling-stroke"/><circle cx="10.379" cy="13.908" r="2.5" transform="rotate(-3.72 10.38 13.908)" vector-effect="non-scaling-stroke"/></g></svg>