<svg xmlns="http://www.w3.org/2000/svg" width="32" height="32" fill="none" viewBox="0 0 32 32"><path fill="#000" d="m7.632 13.601.161.473.088-.03.071-.059-.32-.384Zm3.43-2.863-.278-.416-.022.015-.021.017.32.384Zm3.874-1.67-.06-.496.06.496Zm2.834.295-.154.475.005.002.15-.477Zm2.547.796.2-.458-.025-.011-.026-.009-.15.478Zm1.624.185.032.499-.032-.5Zm4.785.131-.081.494.012.001.069-.495Zm1.09.152-.07.495.087.012.085-.017-.102-.49Zm1.652-.347-.07-.495-.016.002-.017.004.103.489Zm.489.064.442-.234-.037-.068-.055-.054-.35.356Zm-.21.639-.343-.364.343.364Zm-6.08 4.35.25.432.017-.01.015-.01-.281-.413ZM1.954 18.357a.5.5 0 1 0 .98-.204l-.98.204Zm.08-2.076.49-.102-.49.102Zm.848-1.566-.07-.495.07.495Zm2.556-.365.07.495.047-.007.044-.015-.161-.473Zm-3.227.827-.432-.252.432.252Zm12.725-4.747.142.48.01-.003-.152-.477Zm-.726.536-.434-.248-.027.047-.016.052.477.15Zm-.304.973-.477-.15.477.15Zm.364.391-.16-.473.16.473Zm1.969 1.926-.196-.46-.014.006-.013.006.223.448Zm7.073-2.483-.125-.484-.012.003.137.481ZM2.681 17.968a.5.5 0 0 0-.838.546l.838-.546Zm3.992.273v-.5a.5.5 0 0 0-.372.166l.372.334Zm.028 0 .42-.272a.5.5 0 0 0-.42-.228v.5Zm4.41 0v-.5a.5.5 0 0 0-.372.166l.372.334Zm.027 0 .42-.272a.5.5 0 0 0-.42-.228v.5Zm4.412 0v-.5a.5.5 0 0 0-.372.166l.372.334Zm.026 0 .42-.272a.5.5 0 0 0-.42-.228v.5Zm4.41 0v-.5a.5.5 0 0 0-.371.166l.372.334Zm.027 0 .42-.272a.5.5 0 0 0-.42-.228v.5Zm4.41 0v-.5a.5.5 0 0 0-.371.166l.372.334Zm.027 0 .42-.272a.5.5 0 0 0-.42-.228v.5Zm4.782.335a.5.5 0 1 0-.743-.669l.744.669ZM13.29 21.235a.5.5 0 0 0 0 1v-1Zm.026.5.42-.273a.5.5 0 0 0-.42-.227v.5Zm4.41 0v-.5a.5.5 0 0 0-.371.166l.372.334Zm.027 0 .42-.273a.5.5 0 0 0-.42-.227v.5Zm4.41 0v-.5a.5.5 0 0 0-.371.166l.372.334Zm.027 0 .42-.273a.5.5 0 0 0-.42-.227v.5Zm4.783.334a.5.5 0 0 0-.744-.668l.744.668Zm-19.02-8.084 3.429-2.863-.641-.768-3.43 2.864.641.767Zm3.386-2.831c.347-.232.96-.596 1.646-.921.694-.329 1.422-.597 2.011-.669l-.12-.992c-.751.091-1.594.414-2.319.757a14.91 14.91 0 0 0-1.773.993l.555.832Zm3.657-1.59c.248-.03.52-.076.925-.061.404.015.95.094 1.695.335l.308-.951c-.823-.267-1.46-.364-1.965-.383-.503-.02-.865.04-1.084.068l.121.992Zm2.625.276 2.547.796.298-.955-2.547-.796-.298.955Zm2.495.777c.278.121.953.283 1.857.226l-.063-.998c-.777.049-1.288-.099-1.393-.144l-.4.916Zm1.857.226c.282-.018.533-.053.774-.084.243-.031.492-.06.803-.07.623-.024 1.521.021 3.095.28l.162-.987c-1.613-.265-2.582-.32-3.293-.293-.355.013-.64.046-.893.078-.258.033-.469.063-.711.078l.063.998Zm4.684.127 1.09.152.138-.99-1.09-.152-.138.99Zm1.261.147 1.653-.348-.206-.978-1.652.347.205.979Zm1.62-.342a1.43 1.43 0 0 1 .16-.013c.018.002.016.003.003-.001a.248.248 0 0 1-.095-.06l.701-.713a.844.844 0 0 0-.552-.224 1.834 1.834 0 0 0-.357.021l.14.99Zm-.023-.197-.01-.025a.127.127 0 0 1-.005-.045c.002-.015.005-.015-.003 0a.47.47 0 0 1-.093.11l.687.728c.248-.235.382-.489.405-.748a.862.862 0 0 0-.097-.488l-.884.468Zm-.11.04c-.28.264-.973.789-2.025 1.538-1.04.74-2.402 1.68-3.994 2.763l.563.826a245.705 245.705 0 0 0 4.01-2.774c1.038-.738 1.792-1.305 2.132-1.625l-.687-.727ZM23.417 14.9c-2.234 1.288-3.868 1.924-7.736 3.104l.292.957c3.897-1.19 5.613-1.851 7.944-3.195l-.5-.866ZM2.932 18.154l-.41-1.974-.979.203.41 1.975.98-.204Zm.02-2.943 2.555-.365-.141-.99-2.556.365.142.99Zm2.646-.387 2.195-.75-.323-.946-2.195.75.323.946Zm-2.956.606a.434.434 0 0 1 .31-.22l-.142-.989a1.434 1.434 0 0 0-1.032.705l.864.504Zm-.12.75c-.053-.26-.01-.53.12-.75l-.864-.504c-.255.438-.338.96-.235 1.457l.98-.203Zm15.391-7.218-3.129.992.302.954 3.13-.992-.303-.954Zm-3.12.99c-.13.038-.31.114-.488.23a1.608 1.608 0 0 0-.53.537l.868.497a.622.622 0 0 1 .204-.194c.098-.063.191-.1.23-.112l-.284-.958Zm-1.061.866-.304.973.954.298.304-.972-.954-.299Zm.697 1.987 6.196-2.086-.319-.947-6.196 2.086.319.947Zm-1.001-1.014c-.176.562.323 1.243 1 1.014l-.318-.947a.224.224 0 0 1 .23.056.182.182 0 0 1 .042.175l-.954-.298Zm-5.965 7.392 8.997-4.479-.445-.895-8.998 4.479.446.895Zm8.97-4.466c2.615-1.112 3.817-1.556 7.014-2.462l-.273-.962c-3.238.917-4.48 1.376-7.132 2.504l.391.92Zm7.002-2.458 4.533-1.162-.248-.969-4.534 1.162.249.969ZM2.263 18.24l-.419.274.002.001.002.004.006.01a1.813 1.813 0 0 0 .098.133c.065.084.159.199.28.325.24.25.602.563 1.07.776a2.58 2.58 0 0 0 1.725.163c.656-.164 1.333-.588 2.019-1.352l-.744-.668c-.593.66-1.107.947-1.518 1.05-.405.102-.76.036-1.068-.103a2.559 2.559 0 0 1-.763-.559 2.972 2.972 0 0 1-.272-.328l.001.001-.419.273Zm4.41.5h.03v-1h-.03v1Zm.03-.5-.42.273v.001l.002.001.002.004.007.01a2.409 2.409 0 0 0 .097.133c.065.084.159.198.28.325.24.25.602.563 1.07.776a2.58 2.58 0 0 0 1.725.163c.655-.164 1.332-.588 2.018-1.352l-.744-.668c-.593.66-1.106.947-1.517 1.05a1.58 1.58 0 0 1-1.068-.103 2.56 2.56 0 0 1-.763-.559 2.97 2.97 0 0 1-.27-.326l-.002-.002.001.001-.419.273Zm4.41.5h.026v-1h-.027v1Zm.026-.5-.418.273v.002l.003.004.006.01a2.448 2.448 0 0 0 .098.133c.065.084.159.198.28.325.24.25.602.563 1.07.776a2.581 2.581 0 0 0 1.725.163c.656-.164 1.333-.588 2.02-1.351l-.744-.669c-.594.66-1.107.947-1.519 1.05a1.582 1.582 0 0 1-1.068-.103 2.556 2.556 0 0 1-.763-.559 2.93 2.93 0 0 1-.26-.31l-.01-.016a.025.025 0 0 0-.001-.002v.001l-.419.273Zm4.412.5h.026v-1h-.026v1Zm.026-.5-.419.273v.001l.002.001.002.004.006.01a2.448 2.448 0 0 0 .098.133c.064.084.158.198.28.325.24.25.602.563 1.07.776a2.58 2.58 0 0 0 1.724.163c.656-.164 1.333-.588 2.02-1.351l-.744-.669c-.593.66-1.107.947-1.518 1.05-.406.102-.761.036-1.068-.103a2.558 2.558 0 0 1-.763-.559 2.965 2.965 0 0 1-.26-.31l-.01-.016-.002-.002v.001l-.418.273Zm4.41.5h.027v-1h-.026v1Zm.027-.5-.419.273v.001l.002.001.002.004.006.01a1.624 1.624 0 0 0 .098.133c.064.084.158.198.28.325.24.25.602.563 1.07.776a2.58 2.58 0 0 0 1.725.163c.655-.164 1.332-.588 2.019-1.351l-.744-.669c-.593.66-1.107.947-1.518 1.05-.406.102-.761.036-1.068-.103a2.56 2.56 0 0 1-.763-.559 2.965 2.965 0 0 1-.27-.326l-.002-.002v.001l-.418.273Zm4.41.5h.027v-1h-.026v1Zm.027-.5-.419.273v.001l.002.001.002.004.006.01a2.278 2.278 0 0 0 .098.133c.064.084.158.198.28.325.24.25.602.563 1.07.776a2.58 2.58 0 0 0 1.725.163c.655-.164 1.332-.588 2.018-1.351l-.743-.669c-.593.66-1.107.947-1.518 1.05-.406.102-.761.036-1.068-.103a2.56 2.56 0 0 1-.763-.559 2.965 2.965 0 0 1-.27-.326l-.002-.002.001.001-.419.273ZM13.29 22.235h.026v-1h-.026v1Zm.026-.5-.419.273.002.002.002.003.006.01a2.278 2.278 0 0 0 .098.134c.064.084.159.198.28.324.24.25.602.564 1.07.776a2.58 2.58 0 0 0 1.725.164c.655-.164 1.333-.589 2.019-1.352l-.744-.668c-.593.66-1.107.947-1.518 1.05-.405.101-.76.036-1.068-.104a2.558 2.558 0 0 1-.763-.558 2.986 2.986 0 0 1-.26-.31l-.01-.016-.002-.003v.001h.001l-.419.274Zm4.41.5h.027v-1h-.026v1Zm.027-.5-.419.273.002.002.002.003a1.45 1.45 0 0 0 .028.04 3.997 3.997 0 0 0 .356.428c.24.25.602.564 1.07.776a2.581 2.581 0 0 0 1.725.164c.655-.164 1.333-.589 2.019-1.352l-.744-.668c-.593.66-1.107.947-1.518 1.05-.405.101-.76.036-1.068-.104a2.558 2.558 0 0 1-.763-.558 2.986 2.986 0 0 1-.27-.326l-.002-.003v.001h.001l-.419.274Zm4.41.5h.027v-1h-.026v1Zm.027-.5-.419.273.002.002.002.003.006.01a3.815 3.815 0 0 0 .098.134c.064.084.159.198.28.324.24.25.602.564 1.07.776a2.58 2.58 0 0 0 1.725.164c.655-.164 1.333-.589 2.019-1.352l-.744-.668c-.593.66-1.107.947-1.518 1.05-.405.101-.76.036-1.068-.104a2.557 2.557 0 0 1-.763-.558 2.946 2.946 0 0 1-.26-.31l-.01-.016-.002-.003v.001h.001l-.419.274Z" vector-effect="non-scaling-stroke"/></svg>