<svg xmlns="http://www.w3.org/2000/svg" width="24" height="24" fill="none" viewBox="0 0 32 32"><g stroke="#000" stroke-width="1.5"><path d="M17.344 6H14.55C9.53 6 7.322 6 6.468 8.859c-.176.588.304 1.141.917 1.141h17.23c.613 0 1.093-.553.917-1.141-.854-2.86-3.063-2.86-8.082-2.859h-.106Z" vector-effect="non-scaling-stroke"/><path d="M17.344 26H14.55c-5.02 0-7.228 0-8.082-2.859-.176-.588.304-1.141.917-1.141h17.23c.613 0 1.093.553.917 1.141-.854 2.86-3.063 2.86-8.082 2.859h-.106Z" vector-effect="non-scaling-stroke"/><rect width="24" height="24" x="6" y="14" rx="1" vector-effect="non-scaling-stroke"/></g></svg>