<svg xmlns="http://www.w3.org/2000/svg" width="16" height="16" fill="none" viewBox="0 0 32 32"><path stroke="#000" stroke-linecap="round" stroke-width="1.5" d="M25.5 13.077h-19m5.115-3.654V6.5m8.77 2.923V6.5m-9.5 10.962h1.461m2.923 0h1.462m2.923 0h1.461m-10.23 3.653h1.461m2.923 0h1.462m2.923 0h1.461M6.5 10.885v11.692A2.923 2.923 0 0 0 9.423 25.5h13.154a2.923 2.923 0 0 0 2.923-2.923V10.885a2.923 2.923 0 0 0-2.923-2.923H9.423A2.923 2.923 0 0 0 6.5 10.885Z" vector-effect="non-scaling-stroke"/></svg>