<svg xmlns="http://www.w3.org/2000/svg" width="24" height="24" fill="none" viewBox="0 0 32 32"><g stroke="#000" stroke-linecap="round" stroke-width="1.5"><path stroke-linejoin="round" d="M13.944 27V12.142c0-.295.12-.579.332-.787.213-.209.5-.326.802-.326h9.788c.3 0 .59.117.802.326.212.208.332.492.332.787V27" vector-effect="non-scaling-stroke"/><path stroke-linejoin="round" d="M6 27v-6.196c0-.295.12-.578.332-.787.213-.208.501-.326.802-.326h4.883" vector-effect="non-scaling-stroke"/><path stroke-miterlimit="10" d="M17.776 8.873V5" vector-effect="non-scaling-stroke"/><path stroke-miterlimit="10" d="M22.164 8.873V5" vector-effect="non-scaling-stroke"/><path stroke-miterlimit="10" d="M21.983 6.937h-4.01" vector-effect="non-scaling-stroke"/><path stroke-miterlimit="10" d="M16.193 13.908h7.555" vector-effect="non-scaling-stroke"/><path stroke-miterlimit="10" d="M16.193 16.78h7.555" vector-effect="non-scaling-stroke"/><path stroke-miterlimit="10" d="M16.193 19.654h7.555" vector-effect="non-scaling-stroke"/><path stroke-miterlimit="10" d="M16.193 22.526h7.555" vector-effect="non-scaling-stroke"/><path stroke-miterlimit="10" d="M16.193 25.398h7.555" vector-effect="non-scaling-stroke"/><path stroke-miterlimit="10" d="M8.083 22.526h3.93" vector-effect="non-scaling-stroke"/><path stroke-miterlimit="10" d="M8.083 25.398h3.93" vector-effect="non-scaling-stroke"/></g></svg>