<svg xmlns="http://www.w3.org/2000/svg" width="32" height="32" fill="none" viewBox="0 0 32 32"><path fill="#000" d="M13.36 7.24a.5.5 0 0 0 0 1v-1Zm5.28 1a.5.5 0 0 0 0-1v1Zm-6.16 12.477a.5.5 0 1 0 0 1v-1Zm7.04 1a.5.5 0 0 0 0-1v1ZM6.917 16.83a.5.5 0 1 0-.314.949l.314-.95Zm.485.687-.157.475h.001l.156-.475Zm17.191 0 .157.475-.157-.475Zm.8.262a.5.5 0 1 0-.315-.95l.315.95ZM13.36 8.239h5.28v-1h-5.28v1Zm-6.6 1.74h18.48v-1H6.76v1Zm5.72 11.738h7.04v-1h-7.04v1Zm8.74 2.11v1.303h1v-1.304h-1Zm0 1.303c0 .76.626 1.37 1.38 1.37v-1a.378.378 0 0 1-.38-.37h-1Zm1.38 1.37h.88v-1h-.88v1Zm.88 0c.755 0 1.38-.61 1.38-1.37h-1c0 .197-.166.37-.38.37v1Zm1.38-1.37v-1.304h-1v1.304h1ZM7.14 23.826v1.304h1v-1.304h-1Zm0 1.304c0 .76.626 1.37 1.38 1.37v-1a.378.378 0 0 1-.38-.37h-1Zm1.38 1.37h.88v-1h-.88v1Zm.88 0c.755 0 1.38-.61 1.38-1.37h-1c0 .197-.166.37-.38.37v1Zm1.38-1.37v-1.304h-1v1.304h1Zm-1.44-3.913c0 .199-.164.37-.38.37v1c.757 0 1.38-.608 1.38-1.37h-1Zm-.38.37a.375.375 0 0 1-.38-.37h-1c0 .762.623 1.37 1.38 1.37v-1Zm-.38-.37c0-.198.164-.37.38-.37v-1c-.757 0-1.38.608-1.38 1.37h1Zm.38-.37c.216 0 .38.172.38.37h1c0-.762-.623-1.37-1.38-1.37v1Zm14.46.37c0 .199-.165.37-.38.37v1c.757 0 1.38-.608 1.38-1.37h-1Zm-.38.37a.375.375 0 0 1-.38-.37h-1c0 .762.623 1.37 1.38 1.37v-1Zm-.38-.37c0-.198.165-.37.38-.37v-1c-.756 0-1.38.608-1.38 1.37h1Zm.38-.37c.216 0 .38.172.38.37h1c0-.762-.623-1.37-1.38-1.37v1ZM9.4 6.5h13.2v-1H9.4v1Zm13.2 0c1.186 0 2.14.951 2.14 2.109h1c0-1.721-1.413-3.109-3.14-3.109v1Zm2.14 2.109v14.347h1V8.61h-1Zm0 14.347c0 .197-.166.37-.38.37v1c.755 0 1.38-.61 1.38-1.37h-1Zm-.38.37H7.64v1h16.72v-1Zm-16.72 0a.378.378 0 0 1-.38-.37h-1c0 .76.626 1.37 1.38 1.37v-1Zm-.38-.37V8.61h-1v14.347h1Zm0-14.347C7.26 7.45 8.214 6.5 9.4 6.5v-1c-1.727 0-3.14 1.388-3.14 3.109h1Zm-.5 5.587h-.88v1h.88v-1Zm-.88 0a.378.378 0 0 1-.38-.37h-1c0 .76.625 1.37 1.38 1.37v-1Zm-.38-.37v-2.609h-1v2.61h1Zm0-2.609c0-.196.167-.37.38-.37v-1c-.755 0-1.38.61-1.38 1.37h1Zm.38-.37h.88v-1h-.88v1Zm19.36 0h.88v-1h-.88v1Zm.88 0c.213 0 .38.174.38.37h1c0-.76-.625-1.37-1.38-1.37v1Zm.38.37v2.61h1v-2.61h-1Zm0 2.61c0 .196-.166.369-.38.369v1c.755 0 1.38-.61 1.38-1.37h-1Zm-.38.369h-.88v1h.88v-1ZM6.603 17.779l.642.213.315-.95-.643-.212-.314.949Zm.643.213c.5.165 1.024.247 1.547.247v-1c-.419 0-.837-.066-1.234-.197l-.313.95Zm1.547.247h14.41v-1H8.793v1Zm14.41 0c.523 0 1.046-.082 1.547-.247l-.313-.95a3.95 3.95 0 0 1-1.234.197v1Zm1.548-.247.642-.213-.315-.95-.642.214.315.949Z" vector-effect="non-scaling-stroke"/></svg>