<svg xmlns="http://www.w3.org/2000/svg" width="24" height="24" fill="none" viewBox="0 0 32 32"><g fill="#000"><path d="M5.738 19.346a.5.5 0 0 0 .947.321l-.947-.32ZM27 15.686l.4.3a.5.5 0 0 0-.384-.799l-.016.5Zm-3.692 3.662a.5.5 0 0 0 .744.669l-.744-.67Zm-5.87-5.888a.5.5 0 1 0 0-1v1Zm-4.8.053-.095-.491a.5.5 0 0 0-.354.71l.45-.22Zm.629 1.286-.45.22a.5.5 0 0 0 .552.27l-.102-.49Zm5.779-.55v.5h.005l-.005-.5Zm.19-.003.005.5a.5.5 0 0 0 .323-.878l-.328.378Zm-5.842-2.267.076.494h.001l-.077-.494Zm-6.351 1.534-.17-.47a.5.5 0 0 0 .106.966l.064-.496Zm3.582.969a.5.5 0 1 0 .129-.992l-.129.992Zm-1.34-1.554a.5.5 0 0 0 .837-.547l-.838.547Zm-.243-2.201a.5.5 0 0 0-.837.546l.837-.546Zm.984 2.954a.5.5 0 1 0-.913.408l.913-.408Zm-1.203 1.97a.5.5 0 0 0 .833.555l-.833-.555Zm-3.437 4.266a.5.5 0 1 0-.772.636l.772-.636Zm2.99.318v-.5a.5.5 0 0 0-.33.125l.33.375Zm.021 0 .386-.318a.5.5 0 0 0-.386-.182v.5Zm3.376 0v-.5a.5.5 0 0 0-.33.125l.33.375Zm.02 0 .386-.318a.5.5 0 0 0-.386-.182v.5Zm3.377 0v-.5a.5.5 0 0 0-.33.125l.33.375Zm.02 0 .386-.318a.5.5 0 0 0-.386-.182v.5Zm3.375 0v-.5a.5.5 0 0 0-.33.125l.33.375Zm.02 0 .386-.318a.5.5 0 0 0-.385-.182v.5Zm3.376 0v-.5a.5.5 0 0 0-.33.125l.33.375Zm.02 0 .386-.318a.5.5 0 0 0-.386-.182v.5Zm3.706.376a.5.5 0 0 0-.66-.751l.66.75ZM6.738 18.172l.452.213-.452-.213Zm.407-.365.163.473-.163-.473Zm-.46 1.86c.21-.62.393-1.043.505-1.282l-.904-.426c-.129.273-.326.732-.548 1.387l.947.321Zm.623-1.387c3.576-1.24 8.48-1.768 12.525-1.982a99.678 99.678 0 0 1 6.604-.124l.407.009.105.003h.034l.017-.5.016-.499h-.01a35.697 35.697 0 0 1-.136-.004 84.046 84.046 0 0 0-1.947-.02c-1.298 0-3.106.029-5.142.137-4.06.214-9.083.746-12.8 2.035l.327.945ZM27 15.687l-.4-.3-.004.005-.01.015a22.593 22.593 0 0 1-.227.295 67.61 67.61 0 0 1-3.05 3.646l.743.669a68.616 68.616 0 0 0 3.283-3.944l.048-.064.012-.016.004-.004v-.002h.001l-.4-.3Zm-9.563-3.227c-1.019 0-2.248.143-3.208.282a42.308 42.308 0 0 0-1.677.278l-.007.002h-.002l.095.49.096.492h.001l.006-.002a14.07 14.07 0 0 1 .457-.083c.293-.051.703-.12 1.175-.188.948-.137 2.12-.27 3.065-.27v-1Zm-5.248 1.272.629 1.287.898-.44-.629-1.286-.898.44Zm1.18 1.557c1.359-.285 4.215-.54 5.677-.54v-1c-1.517 0-4.443.26-5.881.56l.204.98Zm5.682-.54.19-.003-.01-1-.19.002.01 1Zm.513-.88c-.547-.474-1.447-1.164-2.53-1.689-1.077-.523-2.382-.904-3.717-.695l.154.988c1.056-.165 2.146.13 3.127.607.978.474 1.804 1.105 2.311 1.544l.655-.756Zm-6.17-1.89-.076-.494h-.003l-.008.002a19.688 19.688 0 0 0-.155.025l-.454.076c-.386.069-.93.17-1.56.301-1.255.263-2.87.652-4.264 1.153l.338.941c1.33-.478 2.892-.856 4.131-1.115a48.701 48.701 0 0 1 2.088-.389l.03-.004.007-.001h.001l-.075-.495Zm-6.415 2.03 3.646.473.129-.992-3.647-.473-.128.992Zm3.143-1.628-1.08-1.654-.837.546 1.08 1.655.837-.547Zm-.553 1.504-.456.203v-.001l-.002-.002v-.002s-.001-.001 0 0a1.481 1.481 0 0 1 .073.42c.007.278-.052.685-.36 1.148l.832.555c.435-.654.54-1.27.527-1.732a2.483 2.483 0 0 0-.127-.716 1.492 1.492 0 0 0-.025-.066l-.003-.006a.05.05 0 0 1-.002-.005l-.457.204ZM5 20.235c-.386.318-.386.318-.385.319v.001l.003.003.006.007.02.022.063.068a2.893 2.893 0 0 0 1.078.696c.372.134.825.201 1.334.1.51-.1 1.043-.362 1.587-.84l-.66-.751c-.435.382-.813.55-1.12.61-.308.061-.576.021-.803-.06a1.892 1.892 0 0 1-.74-.495h.002v.001l-.385.32Zm3.376.5h.021v-1h-.021v1Zm.021-.5-.385.319.001.001.003.003.006.007a1.405 1.405 0 0 0 .082.09 2.89 2.89 0 0 0 1.078.696c.372.134.825.201 1.334.1.51-.1 1.043-.362 1.587-.84l-.66-.751c-.435.382-.813.55-1.12.61-.308.061-.576.021-.803-.06a1.887 1.887 0 0 1-.733-.489l-.006-.006h.001v.001h.001l-.386.32Zm3.376.5h.02v-1h-.02v1Zm.02-.5c-.386.318-.385.318-.385.319l.001.001.002.003.007.007a2.061 2.061 0 0 0 .082.09 2.89 2.89 0 0 0 1.078.696c.372.134.825.201 1.335.1.508-.1 1.042-.362 1.586-.84l-.66-.752c-.435.383-.812.55-1.12.612-.307.06-.576.02-.803-.061a1.892 1.892 0 0 1-.733-.489l-.006-.006h.001v.001c.001.001.001.001-.385.32Zm3.377.5h.02v-1h-.02v1Zm.02-.5-.386.319.002.001.002.003.006.007a2.061 2.061 0 0 0 .082.09 2.888 2.888 0 0 0 1.078.696c.372.134.825.201 1.335.1.509-.1 1.042-.362 1.586-.84l-.66-.751c-.435.382-.812.55-1.12.61-.307.061-.576.021-.803-.06a1.888 1.888 0 0 1-.733-.489l-.005-.006.001.001-.385.32Zm3.375.5h.02v-1h-.02v1Zm.02-.5-.385.319.001.001.003.003.006.007a2.841 2.841 0 0 0 .31.298c.194.16.482.356.85.488.372.134.825.201 1.335.1.509-.1 1.042-.362 1.586-.84l-.66-.751c-.435.382-.813.55-1.12.61-.307.061-.576.021-.803-.06a1.889 1.889 0 0 1-.738-.495v.001h.001l-.385.32Zm3.376.5h.02v-1h-.02v1Zm.02-.5a39.019 39.019 0 0 0-.385.319l.001.001.003.003.006.007a2.061 2.061 0 0 0 .082.09 2.89 2.89 0 0 0 1.078.696c.372.134.825.201 1.334.1.51-.1 1.043-.362 1.587-.84l-.66-.751c-.435.382-.813.55-1.12.61-.307.061-.576.021-.803-.06a1.889 1.889 0 0 1-.738-.495v.001h.001l-.386.32Zm-14.79-1.85a.198.198 0 0 1 .117-.105l-.327-.945a1.198 1.198 0 0 0-.695.624l.904.426Z" vector-effect="non-scaling-stroke"/><circle cx="19.984" cy="17.77" r=".5" vector-effect="non-scaling-stroke"/><circle cx="21.857" cy="17.77" r=".5" vector-effect="non-scaling-stroke"/></g></svg>