<svg xmlns="http://www.w3.org/2000/svg" width="24" height="24" fill="none" viewBox="0 0 32 32"><path fill="#000" d="M12.299 24.233a.5.5 0 1 0-.697-.716l.697.716ZM8.9 26.142a.5.5 0 1 0 .698.716l-.698-.716Zm11.497-2.625a.5.5 0 1 0-.697.716l.697-.716Zm2.003 3.341a.5.5 0 1 0 .698-.716l-.698.716ZM8.8 9.875v-.5a.5.5 0 0 0-.5.5h.5Zm14.4 0h.5a.5.5 0 0 0-.5-.5v.5Zm0 6.125v.5a.5.5 0 0 0 .5-.5h-.5ZM8.8 16h-.5a.5.5 0 0 0 .5.5V16Zm3.6-8.375a.5.5 0 0 0 0 1v-1Zm7.2 1a.5.5 0 0 0 0-1v1Zm-9.45 16.5a.5.5 0 0 0 0 1v-1Zm11.7 1a.5.5 0 0 0 0-1v1Zm-.45-1.75c2.252 0 4.1-1.777 4.1-4h-1c0 1.644-1.374 3-3.1 3v1Zm4.1-4V10.312h-1v10.063h1Zm0-10.063c0-1.086-.113-2.496-1.482-3.586C22.697 5.675 20.298 5 16 5v1c4.251 0 6.353.68 7.395 1.508.993.79 1.105 1.786 1.105 2.804h1ZM16 5c-4.299 0-6.697.675-8.018 1.726-1.37 1.09-1.482 2.5-1.482 3.587h1c0-1.019.112-2.014 1.105-2.805C9.647 6.68 11.75 6 16 6V5Zm-9.5 5.313v10.062h1V10.312h-1Zm0 10.062c0 2.223 1.848 4 4.1 4v-1c-1.726 0-3.1-1.356-3.1-3h-1Zm4.1 4h10.8v-1H10.6v1Zm.85-5.313c0 .436-.367.813-.85.813v1c1.008 0 1.85-.798 1.85-1.813h-1Zm-.85.813c-.483 0-.85-.377-.85-.813h-1c0 1.015.842 1.813 1.85 1.813v-1Zm-.85-.813c0-.435.367-.812.85-.812v-1c-1.008 0-1.85.798-1.85 1.813h1Zm.85-.812c.483 0 .85.377.85.813h1c0-1.015-.842-1.813-1.85-1.813v1Zm11.65.813c0 .435-.367.812-.85.812v1c1.008 0 1.85-.798 1.85-1.813h-1Zm-.85.812c-.483 0-.85-.377-.85-.813h-1c0 1.015.842 1.813 1.85 1.813v-1Zm-.85-.813c0-.435.367-.812.85-.812v-1c-1.008 0-1.85.798-1.85 1.813h1Zm.85-.812c.483 0 .85.377.85.813h1c0-1.015-.842-1.813-1.85-1.813v1Zm-9.798 5.267-2.7 2.625.697.716 2.7-2.625-.697-.716Zm8.1.716 2.7 2.625.697-.716-2.7-2.625-.698.716ZM8.8 10.375h14.4v-1H8.8v1Zm13.9-.5V16h1V9.875h-1Zm.5 5.625H8.8v1h14.4v-1ZM9.3 16V9.875h-1V16h1Zm3.1-7.375h7.2v-1h-7.2v1Zm-2.25 17.5h11.7v-1h-11.7v1Z" vector-effect="non-scaling-stroke"/></svg>