<svg xmlns="http://www.w3.org/2000/svg" width="24" height="24" fill="none" viewBox="0 0 32 32"><g stroke="#000" stroke-width="1.5"><path stroke-linecap="round" stroke-miterlimit="10" d="M5.007 15.972c0-3.633 3.153-6.983 7.571-7.772 4.418-.79 8.574 1.256 9.862 4.658" vector-effect="non-scaling-stroke"/><path stroke-linecap="round" stroke-miterlimit="10" d="M10.055 15.26S7.861 13.955 5 15.943" vector-effect="non-scaling-stroke"/><path stroke-linecap="round" stroke-miterlimit="10" d="M17.195 13.942s1.68-2.05 5.231-1.084" vector-effect="non-scaling-stroke"/><path stroke-linecap="round" stroke-miterlimit="10" d="M17.195 13.941s-4.182-1.37-7.15 1.306" vector-effect="non-scaling-stroke"/><path stroke-linecap="round" stroke-miterlimit="10" d="M12.375 8.24s-2.97 1.452-2.323 6.975" vector-effect="non-scaling-stroke"/><path stroke-linecap="round" stroke-miterlimit="10" d="M12.392 8.255s3.412.241 4.78 5.634" vector-effect="non-scaling-stroke"/><path stroke-linecap="round" stroke-miterlimit="10" d="m12.137 6.3-.053-.3" vector-effect="non-scaling-stroke"/><path stroke-miterlimit="10" d="M12.246 6.894 12.084 6" vector-effect="non-scaling-stroke"/><path stroke-miterlimit="10" d="M15.306 24.466 15.598 26" vector-effect="non-scaling-stroke"/><path stroke-linecap="round" stroke-miterlimit="10" d="m15.426 25.102.172.897" vector-effect="non-scaling-stroke"/><path stroke-miterlimit="10" d="m13.544 15.136 1.245 6.587" vector-effect="non-scaling-stroke"/><path stroke-linecap="round" stroke-linejoin="round" d="m27 16.2-3.392 6.878H7.878" vector-effect="non-scaling-stroke"/><path stroke-linecap="round" stroke-linejoin="round" d="M17.962 20.34h6.99" vector-effect="non-scaling-stroke"/><path stroke-linecap="round" stroke-linejoin="round" d="m9.309 25.986 1.769-2.902" vector-effect="non-scaling-stroke"/><path stroke-linecap="round" stroke-linejoin="round" d="m18.811 23.059 1.66-2.703" vector-effect="non-scaling-stroke"/><path stroke-linecap="round" stroke-linejoin="round" d="m25.025 25.986-1.766-2.902" vector-effect="non-scaling-stroke"/></g></svg>